<svg width="32" height="33" viewBox="0 0 32 33" fill="none" xmlns="http://www.w3.org/2000/svg">
<path d="M13.1548 10.0478C13.1548 9.13472 13.8948 8.3941 14.8079 8.3941C15.721 8.3941 16.461 9.13472 16.461 10.0478V16.9778L21.0448 18.9928C21.8798 19.3603 22.2585 20.3347 21.891 21.1691C21.5235 22.0035 20.5491 22.3822 19.7148 22.0153L14.2273 19.6028C13.6004 19.3678 13.1548 18.7635 13.1548 18.0547V10.0478ZM0.337273 10.5316C0.289773 10.391 0.260398 10.2416 0.252273 10.086L0.00227281 5.49285C-0.0446022 4.58347 0.655398 3.80847 1.56477 3.76222C2.47415 3.71535 3.24915 4.41535 3.2954 5.32472L3.34165 6.17472C4.02277 5.29823 4.79385 4.49551 5.64227 3.77972C6.7654 2.83222 8.04102 2.0241 9.4554 1.39347C13.4973 -0.409654 17.8835 -0.405279 21.7066 1.0591C25.491 2.5091 28.7291 5.38847 30.5441 9.36097C30.5923 9.44722 30.6329 9.53847 30.6654 9.63347C32.4066 13.6372 32.386 17.9666 30.9385 21.7466C29.4885 25.531 26.6091 28.7691 22.6366 30.5835C22.3906 30.7214 22.1131 30.7935 21.831 30.7928C20.9179 30.7928 20.1779 30.0528 20.1779 29.1397C20.1779 28.421 20.6366 27.8097 21.2773 27.5822C21.7579 27.3616 22.2185 27.1153 22.6579 26.8447C22.7079 26.8035 22.761 26.7647 22.8173 26.7285C23.5254 26.271 24.1985 25.7472 24.8073 25.1635C24.8473 25.1253 24.8891 25.0891 24.9323 25.056C26.2235 23.7747 27.2123 22.2397 27.8516 20.571C29.0179 17.5272 29.0248 14.0422 27.5954 10.8385L27.5948 10.8366C26.1654 7.63285 23.5704 5.31035 20.531 4.14597C17.4873 2.98035 14.0023 2.97347 10.7985 4.40222C9.70613 4.88883 8.68778 5.52698 7.77352 6.29785C7.15727 6.81785 6.59852 7.3891 6.10165 8.00347L6.31727 7.9766C7.2229 7.86597 8.04727 8.51097 8.1579 9.4166C8.26852 10.3222 7.62352 11.1466 6.7179 11.2572L2.15165 11.8197C1.2979 11.9235 0.516648 11.3566 0.337273 10.5316ZM17.7179 31.9666C19.0229 31.8203 19.6454 30.2835 18.8091 29.2691C18.4523 28.836 17.9098 28.6228 17.3535 28.6803C16.381 28.7897 15.4079 28.7878 14.436 28.6722C13.8523 28.6028 13.2829 28.8422 12.9241 29.3078C12.1516 30.3347 12.7648 31.7935 14.0379 31.9547C15.2616 32.101 16.4929 32.1041 17.7179 31.9666ZM7.17165 29.4247C7.66665 29.7535 8.28227 29.791 8.81665 29.5335C9.95977 28.9672 10.0648 27.3828 9.00477 26.6735C8.20415 26.1453 7.43352 25.4885 6.77915 24.7885C6.1804 24.151 5.19915 24.0853 4.52227 24.6391C4.34746 24.7824 4.20392 24.96 4.10051 25.1611C3.99711 25.3621 3.93605 25.5821 3.92111 25.8077C3.90617 26.0332 3.93767 26.2594 4.01366 26.4723C4.08965 26.6852 4.20851 26.8802 4.3629 27.0453C5.19665 27.9328 6.15415 28.7541 7.17165 29.4247ZM0.682898 20.746C0.865398 21.336 1.3529 21.766 1.95852 21.8822C3.17977 22.1091 4.20915 20.9547 3.84165 19.7685C3.5504 18.831 3.37352 17.8772 3.30165 16.8978C3.21665 15.7522 2.03852 15.0466 0.985398 15.5022C0.343523 15.7928 -0.0433522 16.4266 0.00352281 17.1316C0.0922728 18.3603 0.317273 19.5691 0.682898 20.746Z" fill="black"/>
</svg>
